<svg xmlns="http://www.w3.org/2000/svg" xmlns:xlink="http://www.w3.org/1999/xlink" width="132.108" height="134.359" viewBox="0 0 132.108 134.359"><defs><style>.a{fill:none;}.b{fill:#fff;}.c{clip-path:url(#a);}</style><clipPath id="a"><path class="a" d="M0,77.68H132.107V-56.679H0Z" transform="translate(0 56.679)"/></clipPath></defs><g transform="translate(0.001 56.679)"><g transform="translate(0 -56.678)"><path class="b" d="M34.162,0-24.926,101.854l2.5,4.3L14.823,81.273,36.155,44.49,38.943.007ZM45.91,44.495,67.1,81.4l37.45,25.18,2.634-4.49L48.506.026,43.373.007Zm-66.13,65.441,2.477,4.314,117.727.22,2.375-4.12L62.165,89.933l-42.288-.038Z" transform="translate(24.926)"/></g><g class="c" transform="translate(0.001 -56.679)"><g transform="translate(0 125.537)"><path class="b" d="M22.505,2.945,25.511-.466H23.437l-2.624,2.98V-2.149H19.146v8.6h1.666V3.4l2.759,3.053h2.1Zm-4.238.9v-1.5A2.713,2.713,0,0,0,15.353-.464c-.081,0-.247,0-.332,0a2.714,2.714,0,0,0-2.916,2.809v1.5A2.718,2.718,0,0,0,15,6.655c.1,0,.273,0,.367,0a2.7,2.7,0,0,0,2.9-2.807m-1.659.009a1.259,1.259,0,0,1-1.3,1.337c-.031,0-.2,0-.235,0a1.263,1.263,0,0,1-1.3-1.337V2.341A1.249,1.249,0,0,1,15.069,1a1.859,1.859,0,0,1,.23,0,1.258,1.258,0,0,1,1.309,1.342Zm-5.343,0v-1.5A2.735,2.735,0,0,0,8.353-.452a2.468,2.468,0,0,0-1.6.46V-2.149H5.1v8.6H5.39s.737-.415.775-.429A2.9,2.9,0,0,0,8,6.672c.128,0,.239,0,.367,0a2.725,2.725,0,0,0,2.894-2.809M9.6,3.872A1.258,1.258,0,0,1,8.3,5.207c-.033,0-.2,0-.235,0a1.26,1.26,0,0,1-1.3-1.335V2.353a1.245,1.245,0,0,1,1.3-1.339,1.487,1.487,0,0,1,.23,0A1.256,1.256,0,0,1,9.6,2.353ZM-.3,3.562H4.2V2.343A2.731,2.731,0,0,0,1.273-.464H.957A2.713,2.713,0,0,0-1.956,2.346v1.5A2.789,2.789,0,0,0,.919,6.657c.173.007.261,0,.382,0,2.027,0,2.778-1.034,2.873-2.2H2.65c-.045.218-.114.789-1.4.789A2.663,2.663,0,0,1,.5,5.114C-.456,4.8-.3,3.628-.3,3.562M2.567,2.35H-.309V2.232A1.221,1.221,0,0,1,1.009.935a1.746,1.746,0,0,1,.223,0A1.244,1.244,0,0,1,2.567,2.229ZM-7.292,3.562h4.506V2.343A2.733,2.733,0,0,0-5.718-.464h-.315A2.713,2.713,0,0,0-8.947,2.346v1.5A2.789,2.789,0,0,0-6.071,6.657c.173.007.263,0,.382,0,2.027,0,2.781-1.034,2.875-2.2H-4.341c-.045.218-.114.789-1.4.789A2.679,2.679,0,0,1-6.5,5.114c-.948-.315-.8-1.486-.8-1.553M-4.421,2.35H-7.3V2.232A1.22,1.22,0,0,1-5.979.935a1.709,1.709,0,0,1,.22,0A1.244,1.244,0,0,1-4.421,2.229Zm-4.732,4.1L-12.341,2.9c.159.009.318.017.476.017A2.35,2.35,0,0,0-9.411.478c0-2.105-1.745-2.627-3.29-2.627h-3.719v8.6h1.681l0-3.84,3.456,3.84Zm-3.568-4.743h-2.02V-.677h2.02c.936,0,1.757.294,1.757,1.176s-.514,1.209-1.757,1.209" transform="translate(16.421 2.149)"/></g><g transform="translate(45.547 127.336)"><path class="b" d="M49.812,2.213a2.529,2.529,0,0,0-1.3-.612,3.016,3.016,0,0,0,.626-.334,1.278,1.278,0,0,0,.417-.479A1.45,1.45,0,0,0,49.7.125a1.346,1.346,0,0,0-.275-.82,1.744,1.744,0,0,0-.943-.564,5.888,5.888,0,0,0-1.631-.194H43.3v6.7h3.542a9.454,9.454,0,0,0,1.135-.066,4.367,4.367,0,0,0,1.1-.275,1.905,1.905,0,0,0,.842-.614,1.573,1.573,0,0,0,.306-.981,1.516,1.516,0,0,0-.4-1.1M48.043,1.187a2.646,2.646,0,0,1-.7.164,7.454,7.454,0,0,1-.751.038H44.153v-2.3h2.563a5.885,5.885,0,0,1,1.045.088,1.362,1.362,0,0,1,.751.353.954.954,0,0,1,.258.7.876.876,0,0,1-.2.6,1.355,1.355,0,0,1-.524.348M49.276,3.3a1.127,1.127,0,0,1-.192.676,1.347,1.347,0,0,1-.536.434,2.872,2.872,0,0,1-.811.23,7.575,7.575,0,0,1-1.022.066H44.153V1.931h2.774a7.583,7.583,0,0,1,.837.047,2.7,2.7,0,0,1,.756.194,1.409,1.409,0,0,1,.548.412,1.13,1.13,0,0,1,.209.714m-7.891.488a3.189,3.189,0,0,0,.168-1.057V-1.454h-.858V2.678a2.555,2.555,0,0,1-.185,1.036,1.624,1.624,0,0,1-.522.671,2.113,2.113,0,0,1-.818.363,4.748,4.748,0,0,1-1.062.109,4.871,4.871,0,0,1-1.079-.109,2.141,2.141,0,0,1-.827-.363,1.639,1.639,0,0,1-.529-.671,2.553,2.553,0,0,1-.187-1.036V-1.454h-.865V2.73a3.131,3.131,0,0,0,.173,1.057,2.025,2.025,0,0,0,.576.849,2.877,2.877,0,0,0,1.074.567,5.715,5.715,0,0,0,1.664.206A5.605,5.605,0,0,0,39.756,5.2a2.838,2.838,0,0,0,1.062-.567,2.025,2.025,0,0,0,.567-.849m-13.7,1.46h5.981V4.688h-5.12V-1.454h-.861ZM19.369,3.117a3.334,3.334,0,0,1-.19-1.133A3.937,3.937,0,0,1,19.35.815,2.6,2.6,0,0,1,19.9-.159a2.644,2.644,0,0,1,.97-.666,3.84,3.84,0,0,1,1.453-.247,3.381,3.381,0,0,1,1.752.4,2.214,2.214,0,0,1,.948,1.19l.858-.164A2.238,2.238,0,0,0,25.355-.6a2.853,2.853,0,0,0-.842-.6,3.928,3.928,0,0,0-1.05-.32,6.868,6.868,0,0,0-1.145-.095,5.564,5.564,0,0,0-1.7.242,3.581,3.581,0,0,0-1.282.7A3.021,3.021,0,0,0,18.523.447a3.845,3.845,0,0,0-.282,1.51,3.554,3.554,0,0,0,.3,1.505,2.949,2.949,0,0,0,.83,1.079,3.558,3.558,0,0,0,1.266.65,5.659,5.659,0,0,0,1.61.218,6.292,6.292,0,0,0,1.342-.135A3.889,3.889,0,0,0,24.7,4.857a2.779,2.779,0,0,0,.832-.725,3,3,0,0,0,.512-1.055l-.891-.095a2.42,2.42,0,0,1-.273.7,2.068,2.068,0,0,1-.538.6,2.7,2.7,0,0,1-.853.417,4.141,4.141,0,0,1-1.228.159,3.813,3.813,0,0,1-1.358-.22,2.679,2.679,0,0,1-.958-.609,2.424,2.424,0,0,1-.571-.91M8.154.995A.933.933,0,0,1,7.716.182a.983.983,0,0,1,.133-.507,1.089,1.089,0,0,1,.417-.4A2.56,2.56,0,0,1,8.989-.98a5.2,5.2,0,0,1,1.053-.092,5.272,5.272,0,0,1,1.038.09,2.71,2.71,0,0,1,.744.263,1.777,1.777,0,0,1,.517.42A2.592,2.592,0,0,1,12.7.26L13.5.073a2.347,2.347,0,0,0-.491-.789,2.486,2.486,0,0,0-.744-.522,3.862,3.862,0,0,0-1-.287,7.854,7.854,0,0,0-1.233-.09,6.3,6.3,0,0,0-1.427.142,3.228,3.228,0,0,0-1,.389A1.684,1.684,0,0,0,7.021-.5a1.419,1.419,0,0,0-.2.725,1.582,1.582,0,0,0,.1.533,1.334,1.334,0,0,0,.379.522,2.679,2.679,0,0,0,.768.45,5.307,5.307,0,0,0,1.263.311l1.576.22a5.188,5.188,0,0,1,.943.225,1.392,1.392,0,0,1,.65.427,1.076,1.076,0,0,1,.216.69,1,1,0,0,1-.652.92,4.372,4.372,0,0,1-1.9.325,4.777,4.777,0,0,1-1.223-.13,2.489,2.489,0,0,1-.789-.344,1.647,1.647,0,0,1-.472-.491,3.613,3.613,0,0,1-.275-.562l-.853.147a3.178,3.178,0,0,0,.394.768,2.24,2.24,0,0,0,.668.616,3.455,3.455,0,0,0,1.041.408,6.561,6.561,0,0,0,1.51.149,7.53,7.53,0,0,0,1.619-.149,3.618,3.618,0,0,0,1.086-.4,1.683,1.683,0,0,0,.609-.593,1.444,1.444,0,0,0,.192-.725A1.516,1.516,0,0,0,13.1,2.3a3.642,3.642,0,0,0-1.79-.628l-1.8-.251A3.227,3.227,0,0,1,8.154.995M2.427-.894H5.8v-.559H-1.811v.559H1.562V5.248h.865ZM-3.015,5.248-5.035,2.3a3.05,3.05,0,0,0,.785-.313,1.973,1.973,0,0,0,.574-.484,1.8,1.8,0,0,0,.3-.538,1.6,1.6,0,0,0,.088-.5,1.817,1.817,0,0,0-.18-.815,1.619,1.619,0,0,0-.548-.6,2.762,2.762,0,0,0-.917-.377,5.6,5.6,0,0,0-1.29-.13H-9.985v6.7h.861V2.431h3.079c.055,0,.109,0,.161-.009l1.858,2.826ZM-5.109,1.706a3.509,3.509,0,0,1-1.209.183H-9.124v-2.8h2.807a4.8,4.8,0,0,1,.97.1,1.6,1.6,0,0,1,.823.417A1.151,1.151,0,0,1-4.2.473a1.344,1.344,0,0,1-.206.718,1.352,1.352,0,0,1-.7.514m-6.618,1.676a3.562,3.562,0,0,0,.3-1.486A3.593,3.593,0,0,0-11.727.4a3.05,3.05,0,0,0-.849-1.1A3.817,3.817,0,0,0-13.91-1.38a6.161,6.161,0,0,0-1.766-.235,6.117,6.117,0,0,0-1.757.235A3.8,3.8,0,0,0-18.768-.7,3.05,3.05,0,0,0-19.616.4a3.556,3.556,0,0,0-.3,1.491,3.526,3.526,0,0,0,.3,1.486,3.01,3.01,0,0,0,.849,1.1,3.8,3.8,0,0,0,1.335.687,6.114,6.114,0,0,0,1.757.237,6.158,6.158,0,0,0,1.766-.237,3.825,3.825,0,0,0,1.335-.687,3.01,3.01,0,0,0,.849-1.1M-12.362,1.9a3.156,3.156,0,0,1-.211,1.152,2.586,2.586,0,0,1-.628.943,2.96,2.96,0,0,1-1.036.633,4.117,4.117,0,0,1-1.439.232,4.071,4.071,0,0,1-1.429-.232,2.928,2.928,0,0,1-1.034-.633,2.61,2.61,0,0,1-.626-.943A3.156,3.156,0,0,1-18.976,1.9,3.156,3.156,0,0,1-18.765.744,2.6,2.6,0,0,1-18.139-.2,2.928,2.928,0,0,1-17.106-.83a4.018,4.018,0,0,1,1.429-.232,4.063,4.063,0,0,1,1.439.232A2.96,2.96,0,0,1-13.2-.2a2.577,2.577,0,0,1,.628.941A3.156,3.156,0,0,1-12.362,1.9m-8.887-.543A1.649,1.649,0,0,0-21.043.53a1.835,1.835,0,0,0-.183-.825,1.7,1.7,0,0,0-.54-.626,2.749,2.749,0,0,0-.882-.4,4.707,4.707,0,0,0-1.2-.137h-3.741v6.7h.86V2.526H-24.1a5.294,5.294,0,0,0,1.282-.142,3.056,3.056,0,0,0,.962-.4,1.836,1.836,0,0,0,.6-.631m-.7-.823a1.332,1.332,0,0,1-.211.711,1.438,1.438,0,0,1-.7.548,3.02,3.02,0,0,1-1.157.2H-26.73v-2.9h2.747A4.032,4.032,0,0,1-23.07-.8a1.55,1.55,0,0,1,.8.458,1.217,1.217,0,0,1,.322.872M-34.745.995a.933.933,0,0,1-.439-.813,1,1,0,0,1,.13-.507,1.114,1.114,0,0,1,.42-.4A2.56,2.56,0,0,1-33.91-.98a5.2,5.2,0,0,1,1.053-.092,5.272,5.272,0,0,1,1.038.09,2.71,2.71,0,0,1,.744.263,1.777,1.777,0,0,1,.517.42A2.686,2.686,0,0,1-30.2.26l.806-.187a2.348,2.348,0,0,0-.491-.789,2.486,2.486,0,0,0-.744-.522,3.862,3.862,0,0,0-1-.287,7.876,7.876,0,0,0-1.233-.09,6.282,6.282,0,0,0-1.427.142,3.267,3.267,0,0,0-1,.389,1.7,1.7,0,0,0-.59.583,1.419,1.419,0,0,0-.2.725,1.582,1.582,0,0,0,.1.533,1.334,1.334,0,0,0,.379.522,2.7,2.7,0,0,0,.766.45,5.36,5.36,0,0,0,1.266.311l1.576.22a5.236,5.236,0,0,1,.943.225,1.392,1.392,0,0,1,.65.427,1.076,1.076,0,0,1,.216.69,1.007,1.007,0,0,1-.652.92,4.372,4.372,0,0,1-1.9.325,4.764,4.764,0,0,1-1.223-.13,2.489,2.489,0,0,1-.789-.344,1.618,1.618,0,0,1-.472-.491,3.614,3.614,0,0,1-.275-.562l-.853.147a3.178,3.178,0,0,0,.394.768,2.24,2.24,0,0,0,.668.616,3.439,3.439,0,0,0,1.038.408,6.583,6.583,0,0,0,1.512.149,7.546,7.546,0,0,0,1.619-.149,3.577,3.577,0,0,0,1.083-.4,1.672,1.672,0,0,0,.612-.593,1.444,1.444,0,0,0,.192-.725A1.516,1.516,0,0,0-29.8,2.3a3.642,3.642,0,0,0-1.79-.628l-1.8-.251A3.227,3.227,0,0,1-34.745.995" transform="translate(36.345 1.615)"/></g></g></g></svg>